# xmcd
#
# Track frame offsets: 
#        150
#        22731
#        43866
#        68189
#        89966
#        125165
#        137579
#        168617
#        185760
#        207272
#        223436
#        250262
#
# Disc length: 3936 seconds
#
# Revision: 0
# Processed by: cddbd v1.5.2PL0 Copyright (c) Steve Scherf et al.
# Submitted via: ExactAudioCopy v0.99pb5
#
DISCID=c30f5e0c
DTITLE=Strange Neighbors  - Vision
DYEAR=2009
DGENRE=Funk-Blues
TTITLE0=Love Grows
TTITLE1=Play On
TTITLE2=The Plea
TTITLE3=Y U Say
TTITLE4=Rich Man
TTITLE5=Baby Calm Down
TTITLE6=Maybe We've Grown
TTITLE7=Wine and Roses
TTITLE8=Spread A Little Love
TTITLE9=Society
TTITLE10=Don't Give Up
TTITLE11=Blue Marguerite
EXTD=
EXTT0=
EXTT1=
EXTT2=
EXTT3=
EXTT4=
EXTT5=
EXTT6=
EXTT7=
EXTT8=
EXTT9=
EXTT10=
EXTT11=
PLAYORDER=
